# xmcd
#
# Track frame offsets:
#	150
#	12274
#	29824
#	50618
#	74481
#	90858
#	106723
#	128347
#	138241
#	154140
#	167549
#	182370
#	201866
#	220025
#	235833
#	254715
#	273870
#	294166
#
# Disc length: 4228 seconds
#
# Revision: 1
# Processed by: cddbd v1.5.2PL0 Copyright (c) Steve Scherf et al.
# Submitted via: audiograbber 1.83.01
#
DISCID=f0108212
DTITLE=Various Artist - Diggin' Deep
DYEAR=2003
DGENRE=Alternative Country
TTITLE0=Freddy Johnston - Broken Mirror
TTITLE1=Whiskeytown - Bar Lights
TTITLE2=Lucinda Williams - Right In Time
TTITLE3=Ryan Adams - Come Pick Me Up
TTITLE4=David Wilcox - Eye Of The Hurricane
TTITLE5=Calexico - Ballad Of Cable Hogue
TTITLE6=Missouri - You And Voodoo
TTITLE7=Uncle Tupelo - Wait Up
TTITLE8=Nicolai Dunger - Hey Mama
TTITLE9=Steve Earle and The Del McCoury Band - Long, Lonesome Highway Blues
TTITLE10=The Schramms - Torn in Two
TTITLE11=Steve Wynn - Shades Of Blue
TTITLE12=Cary Hudson - By Your Side
TTITLE13=Lambchop - All Smiles And Mariachi
TTITLE14=Robert Earl Keen - Not A Drop Of Rain
TTITLE15=Sixteen Horspower - Sinnerman
TTITLE16=The Walkabouts - Radiant
TTITLE17=Son Volt - Strands
EXTD=
EXTT0=
EXTT1=
EXTT2=
EXTT3=
EXTT4=
EXTT5=
EXTT6=
EXTT7=
EXTT8=
EXTT9=
EXTT10=
EXTT11=
EXTT12=
EXTT13=
EXTT14=
EXTT15=
EXTT16=
EXTT17=
PLAYORDER=
